<mxfile host="app.diagrams.net" modified="2023-11-09T14:21:48.388Z" agent="Mozilla/5.0 (X11; Ubuntu; Linux x86_64; rv:109.0) Gecko/20100101 Firefox/119.0" etag="eKqOJWFivftIaGDpzdZZ" version="22.1.0" type="device">
  <diagram name="Page-1" id="fIDpOyRQobxb_MCxYIHS">
    <mxGraphModel dx="1434" dy="911" grid="1" gridSize="5" guides="1" tooltips="1" connect="1" arrows="1" fold="1" page="1" pageScale="1" pageWidth="850" pageHeight="1100" math="0" shadow="0">
      <root>
        <mxCell id="0" />
        <mxCell id="1" parent="0" />
        <mxCell id="QJhU5oRQL1Jb571ihN6a-230" style="edgeStyle=orthogonalEdgeStyle;rounded=0;orthogonalLoop=1;jettySize=auto;html=1;exitX=0;exitY=0.5;exitDx=0;exitDy=0;entryX=1;entryY=0.5;entryDx=0;entryDy=0;" parent="1" source="QJhU5oRQL1Jb571ihN6a-235" target="QJhU5oRQL1Jb571ihN6a-248" edge="1">
          <mxGeometry relative="1" as="geometry">
            <Array as="points">
              <mxPoint x="465" y="385" />
              <mxPoint x="465" y="430" />
            </Array>
          </mxGeometry>
        </mxCell>
        <mxCell id="QJhU5oRQL1Jb571ihN6a-231" value="" style="edgeStyle=orthogonalEdgeStyle;rounded=0;orthogonalLoop=1;jettySize=auto;html=1;" parent="1" source="QJhU5oRQL1Jb571ihN6a-232" target="QJhU5oRQL1Jb571ihN6a-235" edge="1">
          <mxGeometry relative="1" as="geometry">
            <Array as="points">
              <mxPoint x="675" y="350" />
              <mxPoint x="675" y="385" />
            </Array>
          </mxGeometry>
        </mxCell>
        <mxCell id="QJhU5oRQL1Jb571ihN6a-232" value="TX: beacon" style="rounded=0;whiteSpace=wrap;html=1;rotation=0;" parent="1" vertex="1">
          <mxGeometry x="705" y="325" width="60" height="50" as="geometry" />
        </mxCell>
        <mxCell id="QJhU5oRQL1Jb571ihN6a-233" style="edgeStyle=orthogonalEdgeStyle;rounded=0;orthogonalLoop=1;jettySize=auto;html=1;exitX=0.5;exitY=1;exitDx=0;exitDy=0;entryX=0.5;entryY=0;entryDx=0;entryDy=0;" parent="1" source="QJhU5oRQL1Jb571ihN6a-234" target="QJhU5oRQL1Jb571ihN6a-261" edge="1">
          <mxGeometry relative="1" as="geometry" />
        </mxCell>
        <mxCell id="QJhU5oRQL1Jb571ihN6a-234" value="&lt;div&gt;connectedIdle&lt;/div&gt;" style="rounded=1;whiteSpace=wrap;html=1;fillColor=#f5f5f5;fontColor=#333333;strokeColor=#666666;" parent="1" vertex="1">
          <mxGeometry x="770" y="180" width="120" height="60" as="geometry" />
        </mxCell>
        <mxCell id="QJhU5oRQL1Jb571ihN6a-235" value="transmitting&lt;br&gt;Beacon" style="rounded=1;whiteSpace=wrap;html=1;fillColor=#f5f5f5;fontColor=#333333;strokeColor=#666666;" parent="1" vertex="1">
          <mxGeometry x="510" y="355" width="120" height="60" as="geometry" />
        </mxCell>
        <mxCell id="QJhU5oRQL1Jb571ihN6a-236" value="transmitting CRW&lt;br&gt;Beacon" style="rounded=1;whiteSpace=wrap;html=1;fillColor=#f5f5f5;fontColor=#333333;strokeColor=#666666;" parent="1" vertex="1">
          <mxGeometry x="510" y="280" width="120" height="60" as="geometry" />
        </mxCell>
        <mxCell id="QJhU5oRQL1Jb571ihN6a-238" value="" style="edgeStyle=orthogonalEdgeStyle;rounded=0;orthogonalLoop=1;jettySize=auto;html=1;" parent="1" edge="1">
          <mxGeometry relative="1" as="geometry">
            <mxPoint x="675" y="350" as="sourcePoint" />
            <mxPoint x="630" y="310" as="targetPoint" />
            <Array as="points">
              <mxPoint x="675" y="310" />
            </Array>
          </mxGeometry>
        </mxCell>
        <mxCell id="QJhU5oRQL1Jb571ihN6a-270" style="edgeStyle=orthogonalEdgeStyle;rounded=0;orthogonalLoop=1;jettySize=auto;html=1;entryX=0;entryY=0.5;entryDx=0;entryDy=0;" parent="1" source="QJhU5oRQL1Jb571ihN6a-248" target="QJhU5oRQL1Jb571ihN6a-234" edge="1">
          <mxGeometry relative="1" as="geometry">
            <Array as="points">
              <mxPoint x="255" y="430" />
              <mxPoint x="255" y="210" />
            </Array>
          </mxGeometry>
        </mxCell>
        <mxCell id="QJhU5oRQL1Jb571ihN6a-248" value="QUEUE new&amp;nbsp; beacon time" style="rounded=0;whiteSpace=wrap;html=1;rotation=0;" parent="1" vertex="1">
          <mxGeometry x="260" y="400" width="80" height="60" as="geometry" />
        </mxCell>
        <mxCell id="QJhU5oRQL1Jb571ihN6a-249" value="&lt;div&gt;If beacon transmitted /&lt;/div&gt;&lt;div&gt;&amp;nbsp;not transmitted&lt;/div&gt;" style="text;html=1;align=left;verticalAlign=middle;resizable=0;points=[];autosize=1;" parent="1" vertex="1">
          <mxGeometry x="340" y="385" width="140" height="45" as="geometry" />
        </mxCell>
        <mxCell id="QJhU5oRQL1Jb571ihN6a-250" value="A" style="text;html=1;align=left;verticalAlign=middle;resizable=0;points=[];autosize=1;" parent="1" vertex="1">
          <mxGeometry x="880" y="275" width="30" height="30" as="geometry" />
        </mxCell>
        <mxCell id="QJhU5oRQL1Jb571ihN6a-258" value="If CRW time" style="text;html=1;align=left;verticalAlign=middle;resizable=0;points=[];autosize=1;" parent="1" vertex="1">
          <mxGeometry x="640" y="287.5" width="85" height="30" as="geometry" />
        </mxCell>
        <mxCell id="QJhU5oRQL1Jb571ihN6a-259" value="If not CRW time" style="text;html=1;align=left;verticalAlign=middle;resizable=0;points=[];autosize=1;" parent="1" vertex="1">
          <mxGeometry x="640" y="380" width="105" height="30" as="geometry" />
        </mxCell>
        <mxCell id="QJhU5oRQL1Jb571ihN6a-260" style="edgeStyle=orthogonalEdgeStyle;rounded=0;orthogonalLoop=1;jettySize=auto;html=1;exitX=0;exitY=0.5;exitDx=0;exitDy=0;entryX=1;entryY=0.5;entryDx=0;entryDy=0;" parent="1" source="QJhU5oRQL1Jb571ihN6a-261" target="QJhU5oRQL1Jb571ihN6a-232" edge="1">
          <mxGeometry relative="1" as="geometry" />
        </mxCell>
        <mxCell id="QJhU5oRQL1Jb571ihN6a-261" value="&amp;nbsp;Build a beacon packet &amp;amp;&amp;amp; check all&amp;nbsp;children data queues on current SF &amp;amp;&amp;amp; agregate the data frames to the packet" style="rounded=0;whiteSpace=wrap;html=1;rotation=0;" parent="1" vertex="1">
          <mxGeometry x="795" y="310" width="160" height="80" as="geometry" />
        </mxCell>
        <mxCell id="QJhU5oRQL1Jb571ihN6a-266" style="edgeStyle=orthogonalEdgeStyle;rounded=0;orthogonalLoop=1;jettySize=auto;html=1;exitX=0.25;exitY=0;exitDx=0;exitDy=0;entryX=0.5;entryY=1;entryDx=0;entryDy=0;" parent="1" source="QJhU5oRQL1Jb571ihN6a-267" target="QJhU5oRQL1Jb571ihN6a-232" edge="1">
          <mxGeometry relative="1" as="geometry" />
        </mxCell>
        <mxCell id="QJhU5oRQL1Jb571ihN6a-267" value="&amp;nbsp;Put the node into children&#39;s list &amp;amp;&amp;amp; append info about its time slot" style="rounded=0;whiteSpace=wrap;html=1;rotation=0;fillColor=#FFFFFF;strokeColor=#000000;" parent="1" vertex="1">
          <mxGeometry x="695" y="415" width="160" height="65" as="geometry" />
        </mxCell>
        <mxCell id="QJhU5oRQL1Jb571ihN6a-268" style="edgeStyle=orthogonalEdgeStyle;rounded=0;orthogonalLoop=1;jettySize=auto;html=1;entryX=1;entryY=0.5;entryDx=0;entryDy=0;exitX=0.75;exitY=1;exitDx=0;exitDy=0;" parent="1" source="QJhU5oRQL1Jb571ihN6a-261" target="QJhU5oRQL1Jb571ihN6a-267" edge="1">
          <mxGeometry relative="1" as="geometry">
            <mxPoint x="890" y="472.5" as="sourcePoint" />
          </mxGeometry>
        </mxCell>
        <mxCell id="QJhU5oRQL1Jb571ihN6a-269" value="&lt;div&gt;If data == Child confirmation &lt;br&gt;&lt;/div&gt;&lt;div&gt;for my potential child&lt;/div&gt;" style="text;whiteSpace=wrap;html=1;" parent="1" vertex="1">
          <mxGeometry x="920" y="410" width="112.5" height="40" as="geometry" />
        </mxCell>
      </root>
    </mxGraphModel>
  </diagram>
</mxfile>
